<?xml version="1.0" encoding="UTF-8"?> <svg xmlns="http://www.w3.org/2000/svg" xmlns:xlink="http://www.w3.org/1999/xlink" width="3434" height="943" xml:space="preserve" overflow="hidden"><g transform="translate(-320 -359)"><path d="M868.937 942.02C862.22 941.585 855.507 939.323 848.789 937.991 845.199 937.529 841.61 936.196 838.921 932.602 843.847 927.214 847.432 921.847 851.021 915.996 853.715 911.967 855.507 907.933 858.201 903.882 862.225 897.618 863.121 891.767 862.225 884.144 861.785 879.653 863.577 874.286 865.815 869.332 867.607 862.606 867.607 855.88 867.145 849.154 867.145 844.663 863.577 841.074 860.428 837.936 857.734 835.239 854.144 835.68 851.461 839.269 848.795 842.428 846.997 846.457 845.205 850.051 843.853 851.845 842.951 854.08 841.615 856.777 837.591 853.189 837.135 849.154 836.239 846 834.446 835.685 833.105 825.822 831.753 815.947 829.059 801.598 826.833 788.124 823.699 774.672 819.653 755.836 812.039 737.893 802.198 720.827L792.787 690.78C790.528 684.051 789.197 677.33 788.735 670.144 787.845 667.912 787.845 665.215 787.405 663.415 783.38 644.579 779.334 625.736 775.305 606.9 775.305 605.545 774.409 605.107 774.409 603.745 772.622 590.733 764.546 584.909 753.799 579.974 744.396 576.818 734.991 572.787 725.578 568.756 721.094 566.059 717.048 562.027 712.126 558.441 713.022 556.648 713.48 555.286 714.382 553.951 719.741 546.327 725.12 539.14 729.611 532.418 733.637 526.129 734.991 520.303 730.944 514.021 726.918 506.854 722.892 499.674 719.741 492.049 718.408 490.694 717.512 488.894 717.512 486.662 717.512 471.851 717.055 457.047 716.179 442.235 716.179 440.442 717.055 439.101 716.179 437.766 716.179 429.682 706.309 424.296 706.309 424.296 701.388 420.264 696.008 416.671 691.518 412.639 686.138 408.15 679.876 407.253 674.039 408.588 669.117 409.484 665.987 409.484 661.961 408.15 657.914 405.918 654.326 406.795 651.195 409.484 645.816 413.974 639.554 419.361 634.175 424.754 629.691 429.682 628.358 435.507 628.358 441.797 628.358 449.88 628.796 457.943 629.691 466.027 630.129 471.851 627.435 477.245 623.409 480.838 617.154 486.225 613.108 493.391 614.461 502.371 614.899 503.267 614.461 504.164 614.461 505.506 615.795 512.234 613.108 516.286 606.827 519.414 602.8 521.645 599.67 524.8 595.623 528.394 587.571 535.122 583.983 544.54 586.218 555.293 586.676 556.648 586.676 558.448 586.676 560.68L586.676 562.473 580.859 562.473C568.76 563.369 556.661 562.473 543.667 563.807 541.176 564.279 538.442 564.347 535.668 564.279 534.174 564.239 532.692 564.192 531.185 564.05 527.434 563.693 523.705 563.093 520.365 562.473 510.959 561.138 502.449 559.338 493.475 557.086 487.657 555.293 481.376 553.054 475.996 550.358 469.277 547.661 466.153 542.294 462.565 536.45 459.414 531.084 432.55 470.052 429.857 464.665 428.545 461.199 427.231 459.393 425.117 456.825 425.05 456.743 425.003 456.683 424.935 456.602 424.477 455.705 424.477 455.247 423.583 454.343 419.556 449.873 419.098 444.925 419.556 439.559 420.876 431.132 416.964 424.478 411.692 419.145 411.619 419.071 411.558 418.997 411.484 418.923 411.046 417.568 409.693 416.226 408.353 414.871 407 413.536 404.327 412.639 402.536 412.639 392.208 412.639 385.058 418.929 378.776 424.754 377.443 426.985 377.443 431.018 378.339 433.714 378.339 436.41 380.13 439.101 381.005 441.797 382.358 444.932 385.051 448.525 389.077 449.88 395.797 452.577 398.941 457.047 400.281 463.788 402.536 471.413 407.458 485.301 410.581 493.843 395.352 490.687 379.672 481.27 365.338 478.573 362.187 483.96 364.88 487.991 367.566 492.043 368.024 491.584 368.024 491.146 368.919 490.25 368.919 490.687 368.461 491.584 368.024 492.946 366.233 495.643 363.978 499.674 363.978 501.467 358.161 519.407 343.369 563.814 337.114 580.878 335.323 586.702 332.63 592.992 329.937 598.817 329.923 598.844 329.897 598.864 329.877 598.891 329.877 598.891 329.877 598.891 329.877 598.891 328.517 601.089 326.335 602.862 324.996 604.203 324.558 605.1 323.224 605.538 322.329 606.435 320.539 608.228 320.539 610.466 321.871 613.163 323.662 615.422 327.689 616.318 330.381 616.756 346.964 621.246 363.984 620.808 381.005 620.35 390.868 620.35 403.869 620.35 409.686 610.931 406.556 606.442 401.634 603.745 396.692 602.41 391.77 601.055 376.979 598.817 375.646 597.462 373.854 596.127 373.854 595.23 373.854 592.992 372.959 560.241 372.502 527.032 372.502 494.281 385.953 499.209 398.955 505.061 411.046 511.782 411.282 511.924 411.464 512.045 411.692 512.18 413.605 513.306 415.214 514.209 416.405 515.814 418.661 518.072 419.556 521.2 420.452 524.335 421.818 529.546 423.414 534.724 425.117 539.834 426.201 543.077 427.292 546.319 428.504 549.461 430.295 553.951 432.55 558.879 432.092 563.369 432.092 566.963 430.759 570.556 429.4 573.691L425.117 584.72 419.994 597.92C417.22 605.087 414.709 612.563 411.692 619.797 411.308 620.72 410.992 621.678 410.588 622.588 408.797 625.743 407.458 629.336 406.104 632.903 405.209 634.258 404.334 636.954 402.973 637.851 398.947 640.548 398.947 643.676 402.536 647.269 405.667 649.063 408.353 651.759 411.484 653.094 411.551 653.141 411.625 653.175 411.692 653.222 415.699 655.858 420.526 658.036 424.943 658.487 425.01 658.514 425.057 658.521 425.124 658.548 427.265 659.397 429.036 659.829 431.203 659.829 445.094 661.184 459.886 660.725 474.213 655.797 476.003 654.462 478.696 654.004 480.056 652.662 485.416 649.069 486.311 645.914 482.285 639.651 480.952 636.954 479.592 634.265 478.696 631.109 474.67 617.222 471.539 602.848 467.493 588.044 468.846 588.94 470.186 588.94 471.539 588.94 491.69 594.792 510.959 601.513 531.11 606.442 531.137 606.448 531.164 606.455 531.191 606.462 532.713 606.846 534.187 607.19 535.676 607.547 544.67 609.705 553.079 611.646 561.152 615.86 574.583 622.15 581.303 632.903 583.989 647.276 587.578 663.422 590.271 679.568 592.957 695.735 595.623 709.623 597.421 723.533 599.677 737.904 600.114 742.395 601.01 746.424 601.468 751.356 603.696 759.876 601.468 767.5 596.088 774.248 588.911 782.768 586.224 794.426 583.551 805.638 579.505 820.45 576.812 835.691 573.224 850.502 570.558 862.617 567.865 874.731 566.067 886.846 562.478 904.349 559.785 921.858 556.661 938.899 554.406 950.557 552.615 962.231 550.38 973.443 549.37 980.022 548.461 986.292 547.491 992.469L574.53 1009.1 574.671 1009.19 574.698 1009.21C574.833 984.758 575.089 960.317 575.284 936.022 575.344 928.165 575.472 920.232 575.472 912.445 575.607 906.97 575.586 901.495 575.607 896.014 575.641 886.346 575.721 876.678 575.849 867.01 575.883 864.656 575.849 862.296 575.91 859.936 575.91 858.898 576.105 857.691 576.193 856.571 576.496 852.84 577.115 848.838 578.159 844.69 582.185 828.546 587.564 813.278 591.59 797.134 593.381 788.157 597.408 782.322 604.147 776.939 604.639 776.488 605.11 776.123 605.581 775.754 610.246 772.078 614.01 772.258 618.481 774.704 624.197 777.358 629.933 779.555 637.373 781.333 637.508 781.365 637.622 781.403 637.75 781.436 635.905 778.174 634.067 774.802 632.229 771.431 630.034 767.407 627.839 763.373 625.652 759.463 625.732 759.442 625.799 759.436 625.88 759.425 626.298 759.333 626.667 759.273 627.058 759.202 628.775 758.876 630.296 758.68 631.717 758.539 632.983 758.414 634.208 758.299 635.501 758.109 654.313 754.515 671.359 745.995 687.922 737.034 688.535 736.642 689.033 736.18 689.612 735.761 694.951 731.879 698.775 726.915 699.583 720.429 700.202 717.004 700.788 713.479 701.394 710.007 702.573 702.611 703.744 695.215 704.915 687.82 705.549 683.444 706.249 679.116 706.76 674.667 706.76 674.283 706.343 673.48 705.656 672.395 705.555 672.24 705.515 672.146 705.407 671.971 705.198 672.617 704.882 673.15 704.612 673.588 704.316 674.067 704.074 674.431 704.074 674.66 692.871 692.161 682.112 709.643 671.367 727.611 670.667 728.573 669.932 729.313 669.191 730.041 666.135 733.059 662.688 734.244 658.372 733.875 650.926 733.048 643.486 732.369 636.04 731.673 631.388 731.243 626.728 730.813 622.076 730.297 621.894 730.117 621.531 730.014 621.187 729.895 620.803 729.759 620.5 729.503 620.198 729.22 620.083 729.111 619.901 729.09 619.828 728.943 633.454 722.634 645.782 714.753 657.362 705.949 676.241 691.589 693.126 674.741 710.335 658.055 710.046 658.217 709.763 658.406 709.473 658.575 702.842 662.364 696.385 666.456 689.922 670.602 680.576 676.589 671.158 682.575 661.173 687.908 660.224 688.413 659.328 688.979 658.372 689.472 658.386 689.451 658.406 689.438 658.419 689.417 658.729 688.986 659.119 688.656 659.442 688.238 666.075 679.717 675.48 674.303 681.869 665.512 681.944 665.417 682.031 665.343 682.105 665.242 678.315 667.271 674.699 669.193 671.191 671.169 668.485 672.699 665.825 674.242 663.287 675.995 656.568 679.589 649.836 682.744 643.116 686.775 640.753 687.726 638.477 688.845 636.181 689.937 632.196 691.838 628.21 693.746 624.123 695.432 623.88 695.533 623.651 695.66 623.409 695.755 624.325 694.231 625.227 693.166 626.129 692.196 626.56 691.724 626.998 691.245 627.429 690.807 629.778 688.13 632.276 685.589 634.713 682.993 641.816 675.422 649.095 667.979 656.258 660.199 656.507 659.93 656.757 659.687 657.005 659.418 659.261 657.159 661.947 654.49 661.947 651.334 661.853 651.24 661.752 651.172 661.651 651.078 661.402 650.842 661.146 650.64 660.897 650.424 656.245 646.453 651.242 646.312 646.26 645.051 642.853 644.491 640.026 644.431 637.527 644.808 635.124 645.173 633.017 645.934 631.145 647.242 628.815 648.873 626.782 651.26 624.749 654.496 622.507 658.312 620.467 662.263 618.367 666.415 617.511 668.101 616.683 669.726 615.781 671.539 615.747 671.425 615.741 671.316 615.714 671.202 614.542 666.389 616.145 661.993 613.088 656.728 613.068 656.802 613.054 656.876 613.034 656.95 609.028 673.48 605.46 689.552 602.343 705.624 602.282 705.368 602.228 705.106 602.168 704.856 600.949 699.658 599.805 694.386 598.653 689.121 596.478 679.184 594.33 669.227 592.035 659.424 592.197 659.512 592.311 659.627 592.465 659.721 595.556 661.642 596.654 664.622 598.727 666.732 598.815 666.827 598.902 666.928 598.997 667.015 599.865 667.824 600.902 668.485 602.343 668.849 601.447 656.734 600.989 645.955 600.087 633.84 602.471 632.963 604.78 632.073 607.096 631.184 615.384 628.008 623.389 624.907 631.657 622.44 634.108 621.711 636.552 620.977 639.069 620.39 641.722 619.527 644.408 618.752 647.101 617.983 657.329 615.24 667.623 612.724 677.924 610.203 682.011 609.178 686.097 608.113 690.151 606.94 692.844 606.482 695.968 605.147 698.203 602.889 698.654 602.518 699.024 602.06 699.462 601.675 704.269 597.442 708.477 592.581 712.988 587.639 717.337 582.86 722.124 577.621 727.315 571.992 727.477 571.817 727.618 571.668 727.773 571.493L727.773 575.983 715.674 612.307C712.025 623.269 712.389 633.166 716.294 642.199 718.145 646.487 720.724 650.593 724.184 654.496 730.359 660.253 730.082 665.653 728.608 671.728 728.48 672.26 728.352 672.793 728.211 673.339 726.877 678.267 725.08 682.299 722.394 686.789 715.17 700.926 707.622 715.056 700.021 729.182 698.21 732.543 696.419 735.908 694.607 739.274 693.275 741.645 691.672 743.749 690.959 746.93 690.723 747.985 690.581 749.148 690.581 750.486 691.753 749.915 692.85 749.295 693.941 748.676 694.816 748.153 695.712 747.631 696.54 747.077 697.766 746.283 698.944 745.462 700.068 744.592 701.623 743.379 703.097 742.112 704.491 740.791 705.373 739.948 706.228 739.084 707.057 738.187 708.141 737.028 709.177 735.827 710.167 734.592 711.042 733.516 711.891 732.412 712.712 731.27 714.193 729.226 715.627 727.116 717 724.919 720.246 719.425 723.336 713.64 726.372 707.748 728.797 703.049 731.193 698.29 733.583 693.503 733.476 693.901 733.361 694.292 733.253 694.69 732.224 698.573 731.132 702.456 730.035 706.332 717.882 749.485 702.195 792.403 687.935 836.436 687.915 836.495 687.895 836.555 687.875 836.615 688.198 836.3 688.461 836.104 688.743 835.865 690.454 834.44 691.531 834.19 691.921 833.021 696.89 827.736 701.306 821.999 705.461 816.045 713.291 804.85 720.151 792.86 727.753 781.425 727.753 782.007 727.713 782.583 727.706 783.159 727.692 783.991 727.686 784.818 727.604 785.65 727.598 785.704 727.578 785.742 727.578 785.797 727.456 787.036 727.268 788.271 726.857 789.511 726.736 789.755 726.635 790.016 726.514 790.267 725.289 793.322 724.057 796.416 722.65 799.396 721.727 801.647 720.785 803.817 719.68 805.66 710.274 819.128 700.869 831.678 691.457 844.69 691.416 844.744 691.356 844.793 691.308 844.847 690.945 845.299 690.528 845.717 690.103 846.136 689.807 846.419 689.531 846.712 689.276 847.039 689.208 847.126 689.141 847.207 689.08 847.294 688.804 847.697 688.616 848.186 688.508 848.73 688.481 848.92 688.487 849.127 688.487 849.339 688.474 849.621 688.569 849.986 688.616 850.312 688.67 850.693 688.616 850.976 688.764 851.421 689.915 850.606 690.824 849.877 691.753 849.132 693.369 847.849 694.796 846.571 695.934 845.157 704.943 837.534 712.645 828.948 719.849 819.786 721.276 817.97 722.743 816.181 724.144 814.327 726.891 810.635 729.577 806.845 732.237 802.968 732.728 802.473 733.233 801.962 733.745 801.402 734.371 800.63 735.105 799.717 735.92 798.727 736.182 798.363 736.438 798.026 736.714 797.607 737.394 799.401 738.054 801.098 738.707 802.805 740.457 807.106 742.121 811.326 743.709 815.398 744.787 818.014 745.877 820.596 747.022 823.174 747.183 823.848 747.062 824.647 746.867 825.458 746.544 826.806 745.951 828.165 745.662 829.003 743.965 832.559 742.1 835.963 740.141 839.285 736.95 844.684 733.3 849.747 729.012 854.412 728.278 855.206 727.618 856.048 726.851 856.826 720.131 864.015 712.059 868.941 701.32 866.684 699.967 866.684 698.627 866.684 697.274 866.244 696.823 866.135 696.392 865.988 695.948 865.874 693.362 865.205 690.838 864.39 688.347 863.492 686.851 862.949 685.364 862.367 683.889 861.747 681.317 860.676 678.745 859.599 676.254 858.332 674.315 857.397 672.376 856.451 670.417 855.466 668.943 854.369 667.65 853.33 664.539 853.216 663.866 853.189 663.22 853.15 662.345 853.232 668.626 858.164 673.985 862.214 678.469 866.684 679.748 867.706 681.155 868.555 682.509 869.49 683.822 870.463 685.168 871.388 686.529 872.279 690.629 874.824 694.944 877.151 699.415 879.402 699.907 879.653 700.378 879.903 700.876 880.153 701.044 880.218 701.212 880.234 701.381 880.294 707.932 882.768 714.496 882.295 721.047 878.81 722.407 878.266 723.666 877.478 724.959 876.77 727.914 875.134 730.783 873.231 733.583 870.73 735.691 868.772 737.737 866.739 739.791 864.705 741.737 862.791 743.79 860.926 745.803 859.018 747.516 857.391 749.177 855.739 751.008 854.172 751.029 854.156 751.04 854.135 751.062 854.124 751.312 855.119 751.551 856.435 751.789 857.952 754.152 873.231 755.716 913.24 755.532 946.745 755.472 957.81 755.222 968.13 754.744 976.64 754.233 985.797 753.473 992.86 752.393 996.346 747.035 990.522 741.656 983.79 736.27 977.51 735.852 977.059 735.509 976.531 735.098 976.064 731.974 972.519 729.059 968.712 726.218 964.759 724.649 962.584 723.1 960.42 721.478 958.207 717.614 953.689 714.126 948.969 710.51 944.32 709.11 942.515 707.757 940.688 706.249 938.932 705.144 937.431 704.108 935.984 703.044 934.516 699.341 929.416 695.739 924.419 691.921 919.193 686.542 912.468 682.051 905.725 676.672 898.993 676.295 898.553 675.951 898.031 675.574 897.574 671.084 892.071 666.889 885.933 662.338 879.696 660.352 876.716 658.157 873.834 655.935 870.958 655.316 870.142 654.71 869.31 654.09 868.495 651.895 865.678 649.68 862.867 647.553 859.964 643.068 853.232 638.147 846.511 633.663 840.688 630.378 836.561 627.705 832.167 624.722 828.29 622.844 825.849 620.864 823.565 618.434 821.831 618.555 822.053 618.676 822.271 618.797 822.489 647.835 876.559 681.29 928.834 713.425 981.544 713.21 981.306 713.008 981.05 712.793 980.805 708.167 975.651 703.697 970.376 699.294 965.047 673.951 934.418 651.902 901.321 630.216 868.038 627.388 863.704 624.547 859.365 621.726 855.026 614.138 843.363 606.544 831.716 598.808 820.183 598.781 820.14 598.747 820.096 598.721 820.053 598.721 820.352 598.754 820.591 598.761 820.874 598.781 822.233 598.876 823.413 599.623 824.522 601.413 829.905 604.107 835.299 606.779 840.688 612.92 852.971 618.844 865.656 624.702 878.07 627.402 883.785 630.088 889.456 632.775 894.97 639.211 907.552 646.004 919.618 652.71 931.509 655.807 936.99 658.937 942.52 661.914 947.898 669.966 962.709 678.039 977.516 686.091 992.327 687.552 994.828 688.912 997.634 690.218 1000.53 691.726 1003.88 693.174 1007.36 694.601 1010.73 694.857 1011.44 695.086 1012.17 695.342 1012.88 699.394 1024.12 703.131 1035.56 706.659 1046.9 706.996 1047.99 707.353 1049.09 707.689 1050.18L707.73 1050.15 712.146 1047.5 767.74 1012.62C767.778 1007.45 767.783 1002.28 767.756 997.128 767.713 986.988 767.322 976.896 766.426 966.874 766.225 964.591 766.121 962.302 765.855 960.023L765.855 958.229C764.633 948.012 763.678 937.681 762.776 927.35 762.016 918.628 761.288 909.895 760.468 901.272 758.535 884.176 756.846 867.75 754.706 851.15 754.369 848.561 754.114 845.995 753.756 843.396 752.908 837.518 751.985 831.836 750.932 826.191 750.302 822.788 749.677 819.395 748.835 816.018 747.488 811.168 746.059 806.312 744.652 801.457 741.38 790.163 738.061 778.875 734.943 767.56 734.6 766.064 734.263 764.58 733.94 763.095 733.146 759.735 732.533 756.353 732.136 752.965 731.261 746.359 731.14 739.769 732.695 733.037 733.422 730.21 734.041 727.382 734.64 724.549 735.125 722.148 735.623 719.749 736.081 717.342 737.717 708.611 739.084 699.82 740.767 690.84 740.969 690.537 741.144 690.234 741.312 689.917 741.77 689.04 742.154 687.988 742.646 686.532 742.76 686.189 742.868 685.872 743.002 685.474 743.015 685.494 743.029 685.508 743.043 685.528 747.069 690.874 750.187 695.802 752.409 700.258 753.853 703.076 755.222 705.895 756.596 708.712 759.061 713.775 761.457 718.838 763.765 723.902 767.332 731.727 770.797 739.551 774.371 747.376 777.961 753.199 779.747 759.491 779.291 766.211 778.395 774.297 779.747 782.817 783.337 790.44 785.156 794.252 786.9 797.998 788.686 801.788 796.594 818.508 804.322 835.087 811.99 851.911 812.403 853.139 812.794 854.417 813.19 855.673 813.983 857.838 814.575 860.034 814.955 862.28 815.156 863.172 815.406 863.965 815.58 864.922 816.042 875.678 816.932 886.455 817.372 897.215 817.372 897.857 817.41 898.498 817.427 899.135 817.546 900.483 817.687 901.832 817.855 903.18 817.986 903.887 818.029 904.589 818.268 905.301 818.42 907.606 818.768 909.928 819.077 912.255 819.669 916.714 820.37 921.216 820.951 925.936 816.633 925.936 812.419 926.142 808.199 926.257 804.686 926.355 801.161 926.322 797.593 926.11 796.566 926.05 795.557 926.034 794.519 925.936 792.732 925.936 789.143 924.582 787.345 923.239 780.627 919.204 775.685 921.445 773.915 929.965 776.055 932.428 778.634 933.358 781.333 933.728 782.577 933.902 783.837 934 785.113 934 788.692 934 792.075 934.059 795.361 934.228 797.832 934.353 800.265 934.521 802.573 934.913 804.365 934.913 805.723 934.913 806.597 935.354L807.059 935.354C809.291 936.022 810.741 937.137 811.469 938.752 811.474 938.763 811.48 938.774 811.48 938.785 811.697 939.383 811.833 940.046 811.871 940.785 812.012 942.069 811.963 943.482 811.534 945.212 809.459 953.52 807.401 962.002 805.354 970.468L802.28 983.274C802.269 983.295 802.269 983.312 802.264 983.334 802.068 984.16 801.878 984.97 801.682 985.802 799.711 994.121 797.74 1002.46 795.877 1010.62 795.866 1010.66 795.855 1010.69 795.85 1010.73 795.236 1013.19 794.623 1015.44 794.003 1017.7L791.456 1028.53 791.451 1028.56 791.44 1028.61 787.199 1046.24C781.871 1068.49 776.56 1090.75 771.226 1112.98 770.607 1115.54 769.912 1118.07 769.26 1120.59L733.334 1265.78 733.334 1301.88 752.029 1278.17 769.157 1207.51 769.912 1204.65C770.015 1204.23 769.945 1203.81 770.075 1203.41 775.31 1182.42 780.883 1161.5 786.384 1140.55 794.731 1108.71 803.143 1076.84 811.534 1045L820.403 1010.73 820.473 1010.43 820.332 1010.52C820.386 1010.48 820.44 1010.43 820.484 1010.4L824.008 996.748 825.154 992.311 826.631 986.612 835.565 952.063 835.706 952.253C835.739 952.128 835.75 952.019 835.788 951.889 836.222 949.192 838.482 948.735 841.165 948.735 845.194 949.192 848.779 949.192 852.808 949.632 860.422 950.089 868.036 950.986 875.205 954.581 877.899 955.912 880.586 955.912 881.923 952.786 879.701 946.511 876.552 942.476 868.937 942.02ZM344.332 593.073 350.991 568.473 362.732 525.111 362.732 595.176C351.3 594.873 343.113 597.549 343.113 597.549ZM396.261 609.132C384.163 619.885 349.206 620.35 337.127 609.59 337.222 609.543 337.336 609.502 337.431 609.455 340.797 607.769 345.651 606.523 351.192 605.7 367.385 603.28 389.299 604.48 396.261 609.132ZM643.378 438.757C660.809 412.869 692.945 418.087 704.734 445.343 704.808 445.511 704.895 445.653 704.969 445.822 696.526 438.918 688.171 434.247 679.587 432.197 679.371 432.143 679.156 432.075 678.941 432.028 678.82 432.001 678.699 431.988 678.577 431.961 674.282 431.037 669.918 430.809 665.455 431.26 658.318 431.988 650.933 434.496 643.123 439.094 643.203 438.972 643.298 438.878 643.378 438.757ZM619.828 491.584C620.716 490.034 621.766 488.537 622.931 487.074 626.466 482.618 631.024 478.485 635.077 474.076 635.084 474.13 635.084 474.178 635.091 474.238 635.488 479.199 635.582 483.433 636.302 487.943 636.356 488.261 636.356 488.564 636.41 488.887 636.397 488.901 636.383 488.915 636.37 488.928 633.495 492.049 630.62 495.434 627.678 498.919 625.126 501.953 622.534 505.061 619.82 508.182 619.794 508.108 619.767 508.034 619.74 507.953 617.566 502.202 616.279 496.02 619.828 491.584ZM590.553 542.193C591.234 540.697 592.129 539.335 593.395 538.243 594.694 537.09 596.155 536.025 597.495 534.899 603.043 530.227 608.995 525.758 615.337 521.483 617.006 520.358 618.555 519.164 620.278 518.065 620.07 521.773 618.912 525.097 617.814 528.4 616.811 531.407 615.862 534.394 615.707 537.623 615.66 538.56 615.68 539.517 615.787 540.495 620.272 537.798 624.298 535.108 628.344 532.85 632.808 530.153 635.501 526.121 636.854 521.632 638.188 517.6 639.548 514.007 640.881 509.975 640.901 510.083 640.894 510.178 640.914 510.285 641.11 511.486 641.15 512.625 641.265 513.785 641.655 517.742 641.783 521.604 641.783 525.683 641.783 532.412 640.429 538.237 634.168 543.165 633.064 544 632.249 544.985 631.401 545.942 630.876 546.535 630.371 547.142 629.684 547.654 625.631 550.992 622.709 555.124 618.824 557.773 617.989 558.34 617.181 558.933 616.232 559.331 609.075 562.466 600.107 563.363 591.597 564.718 591.59 564.697 591.59 564.677 591.584 564.657 590.971 562.19 590.487 559.837 590.103 557.558 590.015 557.012 589.968 556.493 589.894 555.961 589.598 553.87 589.369 551.821 589.369 549.906 589.099 546.973 589.544 544.398 590.553 542.193ZM389.818 440.456C389.138 440.941 388.485 441.42 387.751 441.79 387.71 441.736 387.684 441.696 387.643 441.642 381.483 433.68 381.032 430.984 383.705 426.979 384.034 427.957 384.809 428.927 385.219 429.891 385.239 429.945 385.266 429.992 385.287 430.046 385.408 430.37 385.495 430.694 385.495 431.01 385.57 430.97 385.59 430.923 385.651 430.883 386.418 430.424 386.856 429.891 387.125 429.318 388.034 427.417 386.869 425.085 387.313 423.406 387.327 423.352 387.327 423.291 387.34 423.244 387.589 422.516 388.202 421.93 389.535 421.593 390.094 422.725 390.646 423.871 391.171 425.031 391.528 425.813 391.824 426.655 392.14 427.478 392.477 428.354 392.848 429.19 393.117 430.134 394.766 427.633 394.033 424.97 394.181 422.347 394.268 420.716 394.692 419.105 396.248 417.561 397.143 424.289 397.58 428.779 398.476 435.062 397.237 435.804 396.268 436.505 395.345 437.105 394.612 437.577 393.904 438.002 393.117 438.197 391.804 439 390.788 439.761 389.818 440.456ZM408.38 474.454C408.38 474.784 408.36 475.115 408.36 475.445 407.774 473.773 407.255 472.087 406.75 470.402 404.623 463.33 402.731 456.312 397.756 450.602 397.547 450.365 397.379 450.109 397.163 449.88 397.177 449.88 397.183 449.88 397.19 449.88 402.543 450.305 404.34 447.615 405.673 443.139L394.47 443.139C394.47 443.139 394.349 442.741 393.992 442.478 393.864 442.384 393.81 442.235 393.575 442.235 393.898 442.073 394.154 441.885 394.457 441.716 396.585 440.536 398.436 439.228 399.958 438.413 400.058 438.359 400.193 438.258 400.287 438.211 403.876 436.876 406.569 438.211 407.902 442.242 408.124 442.902 408.232 443.779 408.292 444.649 408.353 445.572 408.36 446.496 408.36 447.191 408.521 448.869 408.569 450.548 408.629 452.227 408.757 455.732 408.75 459.231 408.656 462.737 408.542 466.633 408.4 470.543 408.38 474.454ZM411.692 436.741C411.639 436.633 411.484 436.491 411.484 436.404 411.457 436.357 411.45 436.336 411.423 436.296 410.608 435.028 410.555 434.159 409.686 433.714 409.659 433.714 409.639 433.72 409.619 433.72 408.575 433.728 407.619 433.821 406.603 433.856 405.909 433.876 405.222 433.903 404.327 433.72 402.98 433.72 401.674 432.844 401.203 432.399 401.196 432.392 401.183 432.386 401.183 432.386 401.149 432.197 401.135 431.995 401.109 431.806 400.334 426.925 400.045 421.39 401.378 416.118 401.479 415.707 401.519 415.289 401.64 414.885 401.661 414.898 401.674 414.911 401.701 414.918 406.589 417.608 409.7 420.729 411.49 424.761 411.564 424.95 411.625 425.118 411.699 425.3 412.514 427.289 413.288 429.022 413.288 431.489 413.389 431.974 413.335 432.413 413.362 432.871 413.463 434.523 413.288 436.107 413.288 438.217 413.221 438.183 413.174 438.123 413.106 438.089 412.783 437.907 412.48 437.691 412.218 437.449 411.935 437.172 411.814 436.963 411.692 436.741ZM414.486 494.18 414.271 486.596C413.874 485.341 413.645 484.033 413.739 482.625 413.888 479.247 413.847 475.748 413.739 472.202 413.531 465.373 412.978 458.307 412.386 451.215 412.386 449.24 412.48 447.528 413.099 445.316L413.086 444.851 413.073 444.379 413.16 444.487 413.254 444.602C413.254 444.595 413.254 444.595 413.254 444.588 413.268 444.555 413.261 444.528 413.274 444.494 413.382 444.642 413.504 444.865 413.611 445.02L416.95 448.883 425.117 465.811 445.221 507.508 444.797 507.326 443.424 506.733C442.986 506.598 442.555 506.476 442.131 506.288 441.606 506.058 441.128 505.83 440.643 505.526L425.111 498.798ZM430.625 539.922C430.362 539.193 430.106 538.465 429.844 537.737 428.262 533.362 426.653 529.041 425.124 524.82 425.064 524.659 425.003 524.49 424.943 524.328 423.589 520.735 423.152 516.704 421.791 513.575 421.845 513.596 421.865 513.596 421.919 513.616 423.152 514.007 423.643 514.047 424.943 514.911 425.003 514.931 425.064 514.957 425.124 514.977 433.096 517.668 440.637 521.645 447.322 524.314 447.329 524.322 447.342 524.322 447.349 524.328 443.76 534.212 439.714 544.526 435.688 555.279 434.166 550.061 432.416 544.944 430.625 539.922ZM425.124 610.594 437.768 574.836 440.293 567.704 445.04 554.275 446.083 562.627 446.265 564.104 447.369 572.909 448.338 580.634 454.311 628.352C446.958 626.471 433.177 627.152 425.131 627.779 421.367 628.068 418.849 628.352 418.849 628.352ZM455.179 649.069C454.263 649.703 453.341 650.309 452.385 650.842 451.907 651.105 451.409 651.321 450.917 651.557 449.826 652.096 448.709 652.568 447.577 652.972 447.181 653.114 446.79 653.262 446.386 653.39 444.811 653.889 443.215 654.294 441.579 654.557 441.559 654.557 441.539 654.557 441.518 654.564 439.869 654.82 438.193 654.921 436.496 654.941 436.226 654.941 435.964 654.941 435.694 654.941 432.187 654.88 428.632 654.3 425.124 653.148 425.064 653.128 425.003 653.12 424.943 653.1 422.519 652.379 419.994 651.482 417.523 650.418 415.49 649.547 413.504 648.563 411.699 647.377 411.632 647.337 411.558 647.31 411.49 647.269 410.44 646.474 409.532 645.685 408.609 644.903 407.956 644.35 407.309 643.79 406.569 643.237 407 642.941 407.532 642.732 408.043 642.503 409.114 642.024 410.279 641.586 411.49 640.979 411.558 640.972 411.632 640.952 411.699 640.946 412.487 640.844 413.315 640.702 414.19 640.541 417.254 639.968 420.835 639.186 424.949 639.186 425.01 639.172 425.07 639.166 425.131 639.152 427.184 638.714 429.291 638.377 431.413 638.074 439.883 636.846 448.844 636.584 458.094 636.947 459.886 637.844 463.473 636.489 464.813 639.644 462.08 643.548 458.781 646.635 455.179 649.069ZM473.344 625.19C474.536 629.114 475.741 632.943 476.898 636.954 476.865 636.941 476.838 636.934 476.805 636.927 473.269 635.599 470.603 635.154 468.846 634.265 467.015 623.889 465.184 613.386 463.353 602.72 462.491 597.718 461.636 592.763 460.774 587.605L461.138 587.605C461.589 587.605 462.107 587.605 462.107 587.605 465.54 599.949 469.473 612.428 473.344 625.19ZM713.48 573.253C706.302 580.878 698.688 588.037 691.518 595.682 689.195 597.212 686.831 599.033 683.943 599.808 683.485 599.929 683.055 600.091 682.57 600.152 674.605 602.431 666.62 603.799 658.655 605.787 657.214 606.145 655.774 606.489 654.326 606.9 637.932 611.194 621.194 614.815 604.423 621.61 601.979 622.601 599.535 623.66 597.091 624.792 597.057 624.805 597.024 624.819 596.983 624.84 596.29 622.399 595.94 620.269 595.785 618.172 595.738 617.559 595.63 616.925 595.63 616.318 595.166 612.482 594.775 608.801 593.94 605.363 593.61 603.994 593.233 602.653 592.708 601.378 592.695 601.345 592.681 601.304 592.668 601.271 592.156 600.051 591.456 598.911 590.701 597.785 590.533 597.536 590.446 597.259 590.264 597.017 589.611 596.323 588.971 595.655 588.325 594.968 584.898 591.34 581.498 587.774 577.977 584.221 576.011 582.293 573.998 580.325 571.938 578.302 570.241 576.684 568.511 575.059 566.686 573.414 566.626 573.36 566.572 573.306 566.511 573.245L566.511 578.612C566.861 580.527 567.083 582.515 567.299 584.484 567.555 586.817 567.703 589.028 567.763 591.199 567.784 591.927 567.871 592.736 567.871 593.424 567.871 595.069 567.756 596.444 567.5 597.583 566.693 601.109 564.438 602.403 559.361 602.403 556.911 601.958 554.345 601.621 551.84 601.23 551.443 601.169 551.06 601.055 550.662 600.988 548.548 600.637 546.455 600.273 544.569 599.713 541.613 598.924 538.638 598.001 535.676 597.145 534.181 596.714 532.686 596.296 531.191 595.851 522.163 593.181 513.087 590.437 503.789 588.037 497.332 586.298 491.004 583.608 484.433 581.309 479.161 579.468 473.741 577.877 467.95 577.277 467.217 577.277 466.638 577.156 466.126 576.967 464.948 576.522 464.275 575.552 463.877 574.068 463.703 573.428 463.568 572.72 463.467 571.89 459.878 559.776 456.748 547.223 453.166 535.108 452.87 534.326 452.728 533.605 452.506 532.856 451.705 530.173 451.18 527.598 450.48 524.787 451.375 524.787 451.812 524.787 452.708 524.328 454.499 530.153 457.192 535.546 459.428 541.83 460.074 544.25 461.138 546.286 462.43 548.147 462.942 548.881 463.413 549.67 464.006 550.324 466.187 552.609 469.089 554.396 472.879 555.738 477.363 557.072 482.285 559.331 486.769 559.769 497.784 562.223 508.394 563.598 518.669 565.843 519.679 566.066 520.702 566.248 521.711 566.491 524.896 567.131 528.054 567.542 531.198 567.819 532.692 567.947 534.187 568 535.682 568.048 539.203 568.163 542.738 568.122 546.326 567.785 549.282 567.502 552.272 567.084 555.321 566.497 563.832 565.163 572.799 565.163 580.872 565.163 586.689 565.163 592.076 567.394 598.33 567.859 602.464 568.756 606.598 569.423 610.738 569.915 620.891 571.122 631.105 571.176 641.439 570.812 643.796 570.731 646.139 570.677 648.509 570.556 649.35 570.556 650.3 570.448 651.336 570.34 652.515 570.219 653.794 570.097 655.228 570.097 653.949 563.066 652.797 556.223 651.64 549.36 650.656 543.563 649.721 537.717 648.818 531.96 647.809 525.522 646.785 519.097 645.883 512.605 645.863 512.477 645.843 512.348 645.823 512.221 652.999 516.71 655.692 523 657.026 530.16 657.275 532.675 657.699 535.108 658.063 537.569 658.992 543.906 660.089 550.176 661.052 556.648 661.846 560.127 663.354 561.893 666.034 562.897 666.458 563.059 666.835 563.248 667.327 563.369 672.026 564.933 676.497 564.933 680.247 563.369 682.475 562.439 684.401 560.895 686.01 558.859 687.121 557.463 688.097 555.866 688.831 553.944 690.373 550.223 691.679 546.38 692.837 542.49 692.891 542.315 692.945 542.14 692.999 541.964 694.143 538.061 695.133 534.111 696.008 530.16 696.728 529.081 696.304 528.002 696.102 526.91 696.055 526.648 696.008 526.391 696.008 526.129 694.217 528.825 693.315 531.076 691.982 533.753 691.046 535.755 690.151 537.663 689.249 539.551 687.68 542.841 686.057 546.057 684.199 549.394 683.533 550.594 682.866 551.794 682.112 553.048 681.984 553.371 681.748 553.668 681.547 553.978 681.203 554.511 680.799 555.01 680.321 555.489 679.783 556.048 679.223 556.527 678.604 557.005 678.052 557.437 677.534 557.834 677.035 558.205 676.982 558.245 676.921 558.293 676.867 558.333 676.82 558.367 676.766 558.408 676.719 558.441 676.382 558.637 676.072 558.744 675.742 558.906 675.318 559.122 674.894 559.344 674.49 559.5 674.417 559.526 674.356 559.533 674.282 559.56 673.635 559.79 673.009 559.965 672.41 560.052 672.336 560.066 672.269 560.052 672.187 560.066 671.636 560.127 671.103 560.153 670.592 560.086 670.33 560.059 670.1 559.965 669.858 559.904 669.569 559.83 669.272 559.782 669.003 559.661 668.546 559.466 668.128 559.196 667.738 558.886 667.697 558.852 667.65 558.839 667.616 558.805 666.196 557.625 665.159 555.704 664.627 553.054 664.452 552.01 664.277 550.972 664.109 549.927 662.944 542.888 661.786 535.863 660.601 528.825 660.284 527.726 660.055 526.472 659.813 525.239 659.369 522.959 658.945 520.519 658.366 517.607L671.359 517.607C671.945 517.607 672.538 517.52 673.13 517.486 675.837 517.331 678.543 516.724 681.082 515.504 683.095 514.533 685 513.272 686.589 511.324 687.869 510.211 688.548 508.863 688.75 507.514 688.771 507.387 688.791 507.259 688.797 507.131 688.852 506.476 688.757 505.836 688.575 505.209 688.4 504.697 688.245 504.177 687.895 503.719 687.848 503.652 687.821 503.578 687.774 503.51 687.168 502.668 686.327 501.946 685.236 501.461 678.079 498.306 670.471 496.074 662.399 499.667 660.291 500.935 657.975 501.973 655.612 502.93 655.423 503.005 655.255 503.106 655.06 503.186 652.569 504.177 650.03 505.067 647.607 505.957 647.357 505.957 647.008 505.822 646.711 505.695 646.482 505.594 646.273 505.492 646.273 505.492 644.146 503.025 642.631 500.443 641.56 497.787 641.56 497.78 641.56 497.78 641.56 497.773 638.356 489.811 639.103 481.148 639.103 472.741 639.103 471.986 639.446 470.975 640.066 470.651 640.187 470.591 640.295 470.51 640.436 470.51 643.479 467.206 646.705 464.679 650.272 462.575 653.02 460.957 655.956 459.568 659.274 458.395 659.442 459.763 659.698 460.93 659.948 462.11 660.352 464.024 660.776 465.865 661.045 467.813 661.105 467.766 661.16 467.739 661.22 467.692 662.883 466.458 664.452 465.508 665.919 464.665 667.556 463.727 669.077 462.912 670.471 461.982 671.663 462.777 672.726 463.458 673.737 464.112 675.015 464.934 676.187 465.71 677.183 466.452 677.177 466.418 677.163 466.397 677.156 466.364 676.988 465.5 676.698 464.753 676.422 463.991 676.039 462.979 675.568 462.062 675.002 461.22 674.854 461.004 674.706 460.789 674.538 460.586 673.959 459.851 673.265 459.19 672.477 458.604 672.053 458.294 671.609 457.997 671.124 457.734 670.505 457.384 669.825 457.074 669.084 456.797 667.906 456.373 666.687 455.961 665.206 455.732 665.159 455.726 665.125 455.712 665.085 455.705 665.637 455.199 666.155 454.795 666.667 454.431 668.99 452.766 670.895 452.456 672.538 452.813 673.75 453.076 674.82 453.683 675.824 454.35 679.412 457.047 683.438 458.402 687.485 459.737 689.04 460.411 690.481 461.078 691.982 461.854 693.504 462.642 695.086 463.539 696.89 464.665 701.819 467.267 705.01 472.721 705.589 478.249 706.013 482.268 705.097 486.326 702.269 489.352 697.328 494.739 695.988 500.106 695.55 506.854 698.452 508.149 699.226 508.553 699.112 510.164 699.072 510.791 698.93 511.56 698.674 512.685 698.674 514.607 698.58 516.333 698.492 518.065 698.358 520.769 698.21 523.398 698.21 526.135 698.21 533.76 698.667 540.947 699.563 547.668 699.563 550.365 700.896 553.054 702.694 554.396 704.586 556.291 706.356 558.064 708.12 559.843 709.709 561.441 711.298 563.032 712.995 564.737 713.971 565.499 714.691 566.147 715.203 566.76 716.812 568.661 716.179 570.178 713.48 573.253ZM817.904 849.583C816.976 847.044 815.944 844.521 814.733 841.976 813.158 837.431 811.474 832.912 809.78 828.399 805.044 815.812 800.162 803.246 796.029 790.468 794.91 787.009 793.753 783.573 792.792 780.071 792.792 779.44 792.656 778.848 792.58 778.228 792.287 776.879 792.124 775.536 792.07 774.182 792.016 773.764 791.896 773.253 791.896 772.894 793.118 758.512 788.703 745.63 783.837 732.543 783.386 731.336 782.941 730.139 782.49 728.927 781.681 727.089 780.844 725.202 779.986 723.288 777.472 717.719 774.719 711.955 771.726 706.953 765.003 694.838 761.858 681.368 758.29 667.919 755.596 655.345 752.914 642.334 748.884 630.24 747.608 624.739 743.992 620.417 740.962 615.455 740.774 615.145 740.565 614.849 740.377 614.531 740.37 614.545 740.37 614.559 740.363 614.572 739.38 616.723 739.125 618.873 739.198 621.051 739.319 624.752 740.377 628.52 740.377 632.471 740.377 633.921 740.457 635.309 740.558 636.691 740.868 641.154 741.487 645.415 741.636 649.993 741.656 650.586 741.709 651.159 741.709 651.773L741.709 672.847C736.33 664.764 731.847 658.036 726.918 651.314 723.693 646.601 721.458 643.312 720.01 640.507 719.976 640.44 719.936 640.372 719.903 640.311 719.754 640.022 719.633 639.739 719.505 639.462 719.357 639.139 719.202 638.815 719.074 638.505 719.054 638.451 719.034 638.397 719.014 638.343 716.9 632.956 718.051 628.621 721.101 617.228 724.232 602.855 727.82 588.947 731.84 574.163 736.135 576.09 740.431 578.026 744.672 580.008 749.292 582.165 753.853 584.376 758.285 586.716 758.779 586.978 759.148 587.336 759.61 587.619 764.666 590.747 768.06 595.284 770.238 600.994 770.586 601.911 770.993 602.774 771.281 603.752 772.84 611.06 774.403 618.394 775.957 625.783 777.081 631.103 778.2 636.442 779.334 641.89 782.023 653.107 783.815 664.757 786.509 675.975 787.845 690.348 796.811 715.913 799.505 723.533 799.667 724.038 799.923 724.571 800.162 725.115 800.298 725.414 800.39 725.751 800.526 726.088 800.808 726.784 801.107 727.524 801.302 728.486 805.213 736.762 809.123 745.457 813.055 753.754 813.169 753.999 813.282 754.243 813.402 754.488 819.653 767.5 822.803 780.969 825.04 794.883 826.219 802.555 827.501 810.249 828.777 817.97 830.406 827.828 832.04 837.741 833.55 847.805 833.887 849.154 834.457 850.41 835.028 851.677 835.967 853.792 837.091 855.891 838.498 858.12 843.858 866.641 850.142 874.726 856.414 882.806 857.066 883.676 857.495 884.573 857.783 885.476 857.788 885.498 857.81 885.519 857.815 885.547 857.826 885.596 857.826 885.639 857.842 885.688 858.603 888.276 858.157 890.891 857.815 893.121 857.793 893.262 857.766 893.431 857.75 893.567 857.636 893.964 857.479 894.344 857.359 894.736 856.783 896.726 856.072 898.656 855.241 900.559 853.204 905.448 850.538 910.064 846.546 914.664 845.661 910.928 844.091 907.943 842.25 905.219 841.702 904.431 841.246 903.566 840.638 902.838 840.431 902.582 840.171 902.359 839.948 902.109 837.537 899.341 834.767 896.878 831.753 894.464 831.101 893.975 830.563 893.442 829.982 892.92 824.595 888.097 822.265 882.143 821.613 875.852 821.369 873.557 821.342 871.235 821.451 868.902 821.445 861.665 820.077 855.543 817.904 849.583ZM831.747 948.741C828.554 960.839 825.366 973.465 822.168 986.003 821.353 989.19 820.538 992.403 819.724 995.562 819.696 995.666 819.675 995.758 819.648 995.861 819.001 997.841 818.545 999.418 818.013 1001.13 817.817 1001.75 817.654 1002.32 817.421 1003.02 817.312 1003.9 817.041 1004.83 816.84 1005.75 816.422 1007.68 815.976 1009.53 815.439 1011.33 815.2 1012.15 814.934 1013.05 814.727 1013.79 814.727 1013.79 814.809 1013.75 814.841 1013.73 815.064 1013.63 815.917 1013.19 816.976 1012.6L816.731 1012.76 814.781 1013.97C812.881 1021.55 810.974 1029.14 809.085 1036.72 801.992 1065.1 794.927 1093.49 787.769 1121.85 781.284 1147.46 774.436 1173 767.952 1198.61 761.994 1222.02 756.292 1245.49 750.437 1268.94 749.78 1271.6 749.221 1274.55 747.684 1276.68 744.343 1281.34 740.41 1285.57 736.714 1290 736.552 1281.83 736.909 1273.83 738.68 1266.16 746.018 1234.02 753.739 1201.95 761.375 1169.89 769.858 1134.41 778.308 1098.9 786.921 1063.42 788.447 1057.12 790.039 1050.87 791.614 1044.6 793.189 1038.31 794.747 1032.02 796.312 1025.74L796.816 1025.44C796.838 1025.35 796.86 1025.26 796.876 1025.16 796.876 1025.15 796.887 1025.14 796.887 1025.13 798.191 1019.02 799.521 1013.3 801.275 1007.17 801.286 1007.13 801.297 1007.1 801.302 1007.06 801.878 1004.14 802.486 1001.21 803.143 998.259 803.453 996.862 803.855 995.427 804.202 994.013 804.821 991.511 805.419 989.021 806.228 986.427 806.423 985.579 806.689 984.736 806.896 983.888 807.618 980.881 808.444 977.891 809.248 974.9 810.719 969.365 812.224 963.889 813.853 958.43 815.042 954.439 816.215 950.415 817.432 946.495 818.328 943.363 818.784 940.671 823.715 938.872 823.618 939.285 823.525 939.693 823.433 940.106 819.995 954.863 816.731 969.832 812.924 984.715 812.197 987.569 811.393 990.397 810.622 993.235 809.78 996.313 808.976 999.385 808.069 1002.44 808.053 1002.48 808.047 1002.53 808.031 1002.57 806.923 1007.33 805.772 1012.67 804.431 1017.9 804.175 1018.9 803.953 1019.92 803.676 1020.92L803.676 1020.92C803.664 1020.97 803.648 1021.02 803.643 1021.06 803.616 1021.17 803.589 1021.3 803.561 1021.4 803.561 1021.4 803.561 1021.4 803.561 1021.41 802.198 1026.81 800.862 1032.46 799.521 1037.87 799.228 1039.07 798.918 1040.26 798.62 1041.45 790.832 1072.68 782.305 1103.71 775.685 1135.26 776.793 1134.02 777.418 1132.64 777.808 1131.2 785.575 1101.49 793.363 1071.81 801.058 1042.11 801.232 1041.45 801.395 1040.79 801.568 1040.13 803.42 1033.01 805.229 1025.91 807.048 1018.8L805.359 1019.86 806.689 1018.72C806.701 1018.67 806.711 1018.63 806.728 1018.58 807.689 1015.89 808.438 1013.29 809.139 1010.7 809.432 1009.55 809.731 1008.38 810.035 1007.23 810.584 1004.95 811.132 1002.69 811.637 1000.34 811.637 1000.34 811.637 1000.34 811.637 1000.33 812.169 998.596 812.636 996.862 813.141 995.122 814.119 991.794 815.091 988.456 815.993 985.128 819.365 972.687 822.341 960.257 825.524 947.816 825.524 947.452 825.61 947.066 825.708 946.663 825.844 946.12 826.023 945.565 826.273 944.999 826.713 943.994 827.256 942.982 827.712 942.08 827.728 942.053 827.745 942.02 827.761 941.993 833.105 943.374 832.209 945.157 831.747 948.741ZM836.983 924.756C836.407 925.572 835.717 926.387 834.897 927.208 834.751 927.159 834.56 927.143 834.403 927.1 833.121 926.784 831.606 926.676 830.411 925.876 830.368 925.849 830.292 925.805 830.243 925.778 829.651 925.463 828.907 925.049 828.093 924.647 827.674 924.441 827.262 924.218 826.827 924.076 826.87 923.805 826.979 923.544 827.028 923.271 827.37 920.993 827.93 918.856 828.652 916.823 829.586 913.914 830.732 911.07 832.209 908.367 833.328 909.113 834.284 909.895 835.142 910.695 837.966 913.321 839.318 916.192 839.117 919.183 839.106 919.373 839.139 919.569 839.111 919.764 839.063 920.069 838.938 920.373 838.862 920.683 838.525 922.032 837.96 923.386 836.983 924.756ZM695.301 1072.65 694.736 1072.98 687.902 1077.46C687.909 1077.47 687.922 1077.49 687.929 1077.51 687.963 1077.56 687.99 1077.61 688.03 1077.66L688.03 1077.67 695.429 1072.99 695.503 1072.94C695.503 1072.94 695.503 1072.94 695.503 1072.93 695.436 1072.83 695.369 1072.74 695.301 1072.65ZM675.756 1100.76 677.183 1099.94C677.183 1099.93 677.177 1099.92 677.177 1099.92ZM701.185 1084.65 702.721 1083.8C702.714 1083.78 702.707 1083.78 702.701 1083.76ZM641.722 995.682C641.446 995.29 641.17 994.893 640.894 994.502 641.897 997.547 643.035 1000.09 644.422 1002.67 644.88 1003.54 645.264 1004.38 645.816 1005.28 656.582 1024.11 667.32 1042.96 678.523 1061.36 679.607 1062.98 680.563 1064.6 681.56 1066.22L688.01 1062.23C672.296 1039.79 657.302 1017.43 641.722 995.682ZM545.061 1006.3C545.054 1006.33 545.047 1006.36 545.041 1006.39L545.162 1006.46 562.06 1016.86ZM667.3 1082.32C667.3 1082.29 667.293 1082.28 667.293 1082.26L667.252 1082.24 656.871 1075.78 656.022 1075.25 667.212 1082.37 667.313 1082.43C667.313 1082.42 667.313 1082.42 667.313 1082.41 667.313 1082.36 667.306 1082.36 667.3 1082.32ZM650.111 1046.21C649.262 1044.3 648.428 1042.41 647.607 1040.5 646.273 1037.43 644.853 1034.41 643.58 1031.31 635.097 1010.09 627.469 988.863 620.224 967.641 618.279 961.943 616.353 956.244 614.461 950.551 611.351 942.324 608.463 934.108 605.689 925.773 605.635 925.604 605.575 925.436 605.52 925.267 602.747 916.943 600.087 908.514 597.421 899.858 596.815 898.847 596.424 897.743 596.061 896.672 595.617 895.366 595.233 894.116 594.755 893.132 594.748 893.143 594.748 893.148 594.742 893.164 593.523 895.997 593.456 898.461 594.108 900.902 594.176 901.152 594.209 901.402 594.29 901.652 601.01 935.299 608.18 968.049 617.154 1000.36 618.043 1004.28 619.033 1008.26 619.976 1012.22 622.339 1022.13 624.783 1031.98 627.301 1041.65L627.806 1041.96 632.343 1044.77 656.265 1059.98C654.171 1055.41 652.165 1050.8 650.111 1046.21ZM739.286 1061.22 716.186 1075.66 716.159 1075.67C716.159 1075.67 716.159 1075.67 716.159 1075.67 716.166 1075.69 716.166 1075.7 716.173 1075.7L737.199 1062.53ZM767.691 1028.03 767.691 1028.03 716.186 1060.22 712.113 1062.67C712.119 1062.68 712.119 1062.69 712.126 1062.7 712.146 1062.76 712.166 1062.82 712.18 1062.88L712.18 1062.88 712.187 1062.88 767.691 1028.06C767.691 1028.05 767.691 1028.05 767.691 1028.03ZM576.058 1040.99 574.038 1039.74 551.935 1026.01 553.221 1026.82 576.179 1041.23 576.819 1041.63C576.725 1041.54 576.678 1041.43 576.596 1041.33Z" fill="#0C1EA8" fill-rule="evenodd"></path><path d="M794.177 1017.77C794.792 1015.51 795.412 1013.26 796.027 1010.8 796.033 1010.76 796.049 1010.73 796.054 1010.69L795.859 1010.81ZM767.873 1028.07 767.748 1028.15C767.748 1028.16 767.748 1028.16 767.748 1028.18L712.115 1062.96 712.108 1062.96 712.108 1062.96 712.02 1063.02 695.521 1072.92 695.386 1073.01C695.386 1073.01 695.386 1073.01 695.386 1073.02L695.311 1073.06 687.896 1077.74 687.896 1077.73 687.889 1077.74 687.889 1077.74 679.851 1082.7 679.824 1082.72 678.057 1083.82 673.771 1086.46 673.771 1086.46 673.663 1086.39 667.212 1082.53 667.138 1082.49C667.138 1082.49 667.138 1082.49 667.138 1082.5L667.036 1082.44 655.821 1075.33 632.169 1060.33 632.088 1060.29 631.953 1060.2 574.283 1024.75 574.222 1024.7 574.02 1024.58 562.831 1017.72 561.643 1016.99 544.706 1006.61 544.584 1006.54 528.908 996.756 517.079 989.369 515.337 988.287 509.061 984.378 509.061 984.362 424.385 931.465 424.385 670.492 421.166 669.784C418.292 669.501 414.648 668.296 410.93 666.525L410.93 938.875 509.068 999.811 509.068 999.822 517.307 1004.93 542.708 1020.71 552.777 1026.94 551.488 1026.13 573.641 1039.85 575.666 1041.1 576.199 1041.43 576.314 1041.5 583.635 1046.01 584.439 1046.5 585.047 1046.87 602.524 1057.71 673.765 1101.88 673.765 1101.88 673.765 1101.88 674.912 1101.2 675.593 1100.8 677.017 1099.97 677.145 1099.89 694.617 1088.48 701.081 1084.71 702.6 1083.83 702.701 1083.77 713.053 1077.58 716.096 1075.76C716.096 1075.76 716.096 1075.76 716.096 1075.76L716.123 1075.75 739.276 1061.33 737.184 1062.63 767.884 1043.52 767.982 1043.46 775.506 1038.75 783.324 1018.57 767.998 1028.02ZM820.651 1010.57 820.661 1010.54C820.612 1010.58 820.558 1010.62 820.509 1010.66ZM410.922 359.88 410.922 405.172 414.385 406.909C416.962 409.051 419.459 411.415 421.052 414.789 422.28 415.84 423.367 417.065 424.378 418.359L424.378 373.309 922.496 373.309 922.496 931.465 843.838 980.889 833.017 1002.51 935.922 938.875 935.922 359.88Z" fill="#4551BF" fill-rule="evenodd"></path><path d="M1222.4 827.75C1189.89 827.75 1163.34 821.178 1142.79 808.035 1122.33 794.891 1106.86 772.405 1096.4 740.578 1086.03 708.657 1080.84 665.048 1080.84 609.75L1080.84 609.75C1080.84 554.452 1085.93 510.842 1096.12 478.921 1106.4 447 1121.39 424.516 1141.11 411.465 1160.74 398.323 1185.82 391.75 1216.37 391.75L1216.37 391.75C1236.09 391.75 1254.6 392.971 1271.88 395.411 1289.17 397.852 1302.81 400.668 1312.81 403.861L1312.81 403.861 1312.81 437.096 1240.49 437.096C1212.36 437.096 1190.77 449.817 1175.73 475.26 1160.68 500.704 1153.17 545.533 1153.17 609.75L1153.17 609.75C1153.17 653.782 1156.85 688.378 1164.24 713.54 1171.71 738.794 1182.18 756.586 1195.63 766.913 1209.09 777.24 1226.05 782.403 1246.51 782.403L1246.51 782.403 1318.84 782.403 1318.84 815.638C1308.84 818.831 1295.2 821.649 1277.91 824.088 1260.62 826.53 1242.12 827.75 1222.4 827.75Z" fill="#C71227" fill-rule="evenodd"></path><path d="M1438.84 827.75 1365.84 827.75 1365.84 754.748 1438.84 754.748Z" fill="#C71227" fill-rule="evenodd"></path><path d="M1591.41 821.751 1518.84 821.751 1518.84 398.75 1591.41 398.75 1591.41 582.988 1700.27 582.988 1700.27 398.75 1772.84 398.75 1772.84 821.751 1700.27 821.751 1700.27 631.33 1591.41 631.33Z" fill="#C71227" fill-rule="evenodd"></path><path d="M1925.84 827.75 1853.84 827.75 1853.84 754.748 1925.84 754.748Z" fill="#C71227" fill-rule="evenodd"></path><path d="M2049.01 821.751 1973.84 821.751 2082.18 398.75 2172.48 398.75 2280.84 821.751 2205.52 821.751 2179.06 715.93 2075.47 715.93ZM2126 495.436 2085.13 667.588 2168.85 667.588 2128.53 495.436Z" fill="#C71227" fill-rule="evenodd"></path><path d="M2400.84 827.75 2328.84 827.75 2328.84 754.748 2400.84 754.748Z" fill="#C71227" fill-rule="evenodd"></path><path d="M2551.45 821.751 2481.84 821.751 2481.84 398.75 2554.4 398.75 2669.28 676.723 2672.24 676.723 2672.24 398.75 2741.84 398.75 2741.84 821.751 2669.28 821.751 2554.4 543.779 2551.45 543.779Z" fill="#C71227" fill-rule="evenodd"></path><path d="M2894.84 827.75 2821.84 827.75 2821.84 754.748 2894.84 754.748Z" fill="#C71227" fill-rule="evenodd"></path><path d="M3101.41 827.75C3068.89 827.75 3042.36 821.178 3021.8 808.035 3001.33 794.891 2985.87 772.405 2975.4 740.578 2965.03 708.657 2959.84 665.048 2959.84 609.75L2959.84 609.75C2959.84 554.452 2964.94 510.842 2975.12 478.921 2985.4 447 3000.4 424.516 3020.11 411.465 3039.74 398.323 3064.83 391.75 3095.39 391.75L3095.39 391.75C3115.1 391.75 3133.6 392.971 3150.88 395.411 3168.18 397.852 3181.81 400.668 3191.82 403.861L3191.82 403.861 3191.82 437.096 3119.49 437.096C3091.36 437.096 3069.78 449.817 3054.73 475.26 3039.69 500.704 3032.17 545.533 3032.17 609.75L3032.17 609.75C3032.17 653.782 3035.86 688.378 3043.24 713.54 3050.72 738.794 3061.18 756.586 3074.63 766.913 3088.1 777.24 3105.05 782.403 3125.52 782.403L3125.52 782.403 3197.84 782.403 3197.84 815.638C3187.84 818.831 3174.2 821.649 3156.91 824.088 3139.63 826.53 3121.12 827.75 3101.41 827.75Z" fill="#C71227" fill-rule="evenodd"></path><path d="M3318.84 827.75 3245.84 827.75 3245.84 754.748 3318.84 754.748Z" fill="#C71227" fill-rule="evenodd"></path><path d="M3619.84 821.751 3398.84 821.751 3398.84 398.75 3619.84 398.75 3619.84 447.094 3471.46 447.094 3471.46 576.944 3601.67 576.944 3601.67 625.288 3471.46 625.288 3471.46 773.408 3619.84 773.408Z" fill="#C71227" fill-rule="evenodd"></path><path d="M3753.84 827.75 3682.84 827.75 3682.84 754.748 3753.84 754.748Z" fill="#C71227" fill-rule="evenodd"></path><path d="M1115.1 1253.4 1115.1 1253.4 1115.67 1206.09 1115.67 1154.39C1115.67 1128.95 1114.39 1108.21 1111.84 1092.15L1111.84 1092.15C1131.16 1090.56 1152.29 1089.75 1175.2 1089.75 1198.13 1089.75 1211.2 1091.06 1214.42 1093.69L1214.42 1093.69C1216.03 1095.11 1216.84 1097.69 1216.84 1101.44 1216.84 1105.2 1216.13 1108.86 1214.7 1112.43L1214.7 1112.43C1204.48 1108.67 1187.76 1106.8 1164.55 1106.8L1164.55 1106.8C1154.98 1106.8 1145.08 1107.07 1134.86 1107.64L1134.86 1107.64C1135.52 1115.43 1135.85 1126.04 1135.85 1139.47L1135.85 1139.47 1135.85 1167.07 1157.31 1167.07C1172.18 1167.07 1182.97 1166.7 1189.7 1165.95L1189.7 1165.95C1190.36 1167.35 1190.69 1170.18 1190.69 1174.4 1190.69 1178.62 1189.27 1181.24 1186.43 1182.29 1183.49 1183.32 1176.81 1183.83 1166.39 1183.83L1166.39 1183.83 1135.85 1183.83 1135.85 1213.54C1135.85 1237.68 1137.6 1255.33 1141.1 1266.51L1141.1 1266.51C1137.79 1268 1133.52 1268.75 1128.32 1268.75 1123.1 1268.75 1119.6 1267.58 1117.81 1265.24 1116 1262.88 1115.1 1258.94 1115.1 1253.4Z" fill="#4551BF" fill-rule="evenodd"></path><path d="M1357.84 1205.39C1357.84 1224.89 1352.55 1240.5 1341.97 1252.26 1331.39 1263.91 1317.51 1269.75 1300.34 1269.75 1283.08 1269.75 1269.15 1263.91 1258.57 1252.26 1248.08 1240.5 1242.84 1224.89 1242.84 1205.39 1242.84 1185.9 1248.08 1170.27 1258.57 1158.53 1269.15 1146.68 1283.08 1140.75 1300.34 1140.75 1317.51 1140.75 1331.39 1146.68 1341.97 1158.53 1352.55 1170.27 1357.84 1185.9 1357.84 1205.39ZM1300.34 1254.92C1312.6 1254.92 1322.16 1250.72 1329.02 1242.32 1335.89 1234.02 1339.33 1222.6 1339.33 1208.05 1339.33 1193.5 1335.8 1181.14 1328.74 1170.97 1321.68 1160.81 1312.08 1155.72 1299.92 1155.72 1287.77 1155.72 1278.3 1159.92 1271.52 1168.31 1264.66 1176.71 1261.22 1188.18 1261.22 1202.73 1261.22 1217.28 1264.7 1229.59 1271.66 1239.66 1278.52 1249.84 1288.08 1254.92 1300.34 1254.92Z" fill="#4551BF" fill-rule="evenodd"></path><path d="M1402.09 1253.4 1402.09 1253.4 1402.65 1206.09C1402.65 1180.54 1402.05 1159.71 1400.84 1143.56L1400.84 1143.56C1403.63 1142.99 1406.66 1142.72 1409.93 1142.72L1409.93 1142.72C1417.48 1142.72 1421.25 1146.1 1421.25 1152.86L1421.25 1152.86C1421.25 1153.23 1421.2 1154.46 1421.1 1156.52 1421.01 1158.58 1420.96 1160.46 1420.96 1162.15L1420.96 1162.15C1424.51 1156.7 1429.27 1151.77 1435.23 1147.37 1441.19 1142.95 1446.65 1140.75 1451.58 1140.75L1451.58 1140.75C1461.08 1140.75 1465.84 1144.26 1465.84 1151.31L1465.84 1151.31C1465.84 1154.68 1464.07 1158.67 1460.52 1163.28L1460.52 1163.28C1456.7 1159.89 1452.37 1158.21 1447.52 1158.21 1442.77 1158.21 1437.93 1160.18 1432.98 1164.12 1428.05 1168.06 1423.91 1173.23 1420.54 1179.62L1420.54 1179.62C1420.36 1185.71 1420.27 1198.91 1420.27 1219.18 1420.27 1239.55 1421.95 1255.32 1425.3 1266.5L1425.3 1266.5C1422.13 1267.99 1418.35 1268.75 1413.97 1268.75 1409.59 1268.75 1406.53 1267.57 1404.75 1265.23 1402.98 1262.88 1402.09 1258.94 1402.09 1253.4Z" fill="#4551BF" fill-rule="evenodd"></path><path d="M1696.17 1231.13 1696.17 1231.13C1703.95 1234.41 1707.84 1239.02 1707.84 1244.94 1707.84 1250.96 1702.77 1256.6 1692.65 1261.86 1682.52 1267.12 1669.96 1269.75 1654.96 1269.75L1654.96 1269.75C1629.83 1269.75 1609.71 1261.29 1594.63 1244.38 1579.43 1227.56 1571.84 1205.19 1571.84 1177.27 1571.84 1149.25 1579.43 1127.17 1594.63 1111.01 1609.71 1094.83 1630.21 1086.75 1656.08 1086.75L1656.08 1086.75C1669.96 1086.75 1681.59 1089.57 1690.96 1095.22 1700.44 1100.86 1705.16 1107.77 1705.16 1115.94L1705.16 1115.94C1705.16 1123.27 1700.11 1127.74 1689.98 1129.33L1689.98 1129.33C1686.6 1120.59 1681.26 1114.06 1673.94 1109.73 1666.63 1105.32 1658.9 1103.11 1650.74 1103.11L1650.74 1103.11C1633.96 1103.11 1620.27 1109.78 1609.67 1123.13 1599.07 1136.38 1593.78 1153.68 1593.78 1175.01 1593.78 1196.35 1599.13 1214.77 1609.82 1230.27 1620.5 1245.69 1635.45 1253.4 1654.67 1253.4L1654.67 1253.4C1663.21 1253.4 1671.18 1251.52 1678.59 1247.76 1686 1244.01 1691.86 1238.46 1696.17 1231.13Z" fill="#4551BF" fill-rule="evenodd"></path><path d="M1751.1 1253.4 1751.1 1253.4 1751.66 1206.09C1751.66 1180.54 1751.05 1159.71 1749.84 1143.56L1749.84 1143.56C1752.63 1142.99 1755.66 1142.72 1758.92 1142.72L1758.92 1142.72C1766.47 1142.72 1770.25 1146.1 1770.25 1152.86L1770.25 1152.86C1770.25 1153.23 1770.2 1154.46 1770.1 1156.52 1770.01 1158.58 1769.97 1160.46 1769.97 1162.15L1769.97 1162.15C1773.51 1156.7 1778.26 1151.77 1784.22 1147.37 1790.18 1142.95 1795.64 1140.75 1800.57 1140.75L1800.57 1140.75C1810.09 1140.75 1814.84 1144.26 1814.84 1151.31L1814.84 1151.31C1814.84 1154.68 1813.07 1158.67 1809.53 1163.28L1809.53 1163.28C1805.71 1159.89 1801.37 1158.21 1796.53 1158.21 1791.78 1158.21 1786.92 1160.18 1781.98 1164.12 1777.05 1168.06 1772.9 1173.23 1769.54 1179.62L1769.54 1179.62C1769.36 1185.71 1769.26 1198.91 1769.26 1219.18 1769.26 1239.55 1770.94 1255.32 1774.29 1266.5L1774.29 1266.5C1771.13 1267.99 1767.36 1268.75 1762.97 1268.75 1758.59 1268.75 1755.52 1267.57 1753.75 1265.23 1751.98 1262.88 1751.1 1258.94 1751.1 1253.4Z" fill="#4551BF" fill-rule="evenodd"></path><path d="M1850.62 1253.39 1850.62 1253.39 1851.18 1206.03C1851.18 1180.47 1850.52 1159.61 1849.21 1143.45L1849.21 1143.45C1852.12 1142.89 1855.17 1142.6 1858.36 1142.6L1858.36 1142.6C1866.71 1142.6 1870.88 1145.98 1870.88 1152.75L1870.88 1152.75C1870.88 1153.69 1870.69 1157.27 1870.31 1163.46L1870.31 1163.46C1869.28 1182.54 1868.77 1201.71 1868.77 1220.98 1868.77 1240.15 1870.46 1255.32 1873.84 1266.5L1873.84 1266.5C1870.65 1268 1866.85 1268.75 1862.44 1268.75 1858.13 1268.75 1855.07 1267.58 1853.29 1265.23 1851.51 1262.89 1850.62 1258.94 1850.62 1253.39ZM1873.27 1114C1873.27 1118.03 1871.87 1121.46 1869.05 1124.28 1866.24 1127.01 1863 1128.37 1859.35 1128.37 1855.69 1128.37 1852.49 1127.05 1849.77 1124.42 1847.15 1121.7 1845.84 1118.27 1845.84 1114.13 1845.84 1110.09 1847.24 1106.66 1850.05 1103.84 1852.87 1101.12 1856.11 1099.75 1859.76 1099.75 1863.42 1099.75 1866.62 1101.12 1869.34 1103.84 1871.96 1106.66 1873.27 1110.05 1873.27 1114Z" fill="#4551BF" fill-rule="evenodd"></path><path d="M2069.28 1255.09 2069.28 1255.09 2070.84 1185.81C2070.84 1175.57 2068.72 1168.02 2064.49 1163.13 2060.35 1158.25 2054.85 1155.82 2047.99 1155.82L2047.99 1155.82C2037.64 1155.82 2026.6 1160.55 2014.85 1170.03L2014.85 1170.03C2015.22 1194.25 2015.42 1213.55 2015.42 1227.92 2015.42 1242.27 2015.93 1255.51 2016.96 1267.62L2016.96 1267.62C2014.14 1268.18 2011.09 1268.47 2007.8 1268.47L2007.8 1268.47C1999.82 1268.47 1995.82 1265.08 1995.82 1258.33L1995.82 1258.33C1995.82 1257.57 1995.91 1254 1996.1 1247.63L1996.1 1247.63C1996.76 1232.23 1997.09 1211.63 1997.09 1185.81L1997.09 1185.81C1997.09 1165.81 1989.24 1155.82 1973.53 1155.82L1973.53 1155.82C1963.38 1155.82 1952.43 1160.7 1940.68 1170.46L1940.68 1170.46C1940.96 1194.77 1941.1 1214.02 1941.1 1228.19 1941.1 1242.37 1941.67 1255.51 1942.79 1267.62L1942.79 1267.62C1939.88 1268.18 1936.83 1268.47 1933.62 1268.47L1933.62 1268.47C1925.63 1268.47 1921.65 1265.08 1921.65 1258.33L1921.65 1258.33C1921.65 1257.57 1921.83 1251 1922.2 1238.61 1922.68 1226.22 1922.91 1213.88 1922.91 1201.58L1922.91 1201.58C1922.91 1172.29 1921.21 1153.37 1917.84 1144.83L1917.84 1144.83C1921.41 1143.42 1924.6 1142.72 1927.42 1142.72L1927.42 1142.72C1935.69 1142.72 1939.83 1147.17 1939.83 1156.1L1939.83 1156.1C1945.38 1151.59 1951.96 1147.93 1959.58 1145.11 1967.28 1142.2 1974.71 1140.75 1981.85 1140.75L1981.85 1140.75C1996.52 1140.75 2006.44 1146.56 2011.61 1158.21L2011.61 1158.21C2016.41 1153.41 2023.12 1149.34 2031.77 1145.96 2040.52 1142.48 2049.21 1140.75 2057.86 1140.75 2066.51 1140.75 2073.84 1143.75 2079.86 1149.76 2085.97 1155.77 2089.03 1165.34 2089.03 1178.48L2089.03 1178.48 2088.18 1226.22C2088.18 1242.55 2089.74 1255.97 2092.84 1266.5L2092.84 1266.5C2089.26 1267.99 2085.45 1268.75 2081.41 1268.75 2077.37 1268.75 2074.31 1267.71 2072.25 1265.65 2070.27 1263.59 2069.28 1260.06 2069.28 1255.09Z" fill="#4551BF" fill-rule="evenodd"></path><path d="M2194.1 1140.75 2194.1 1140.75C2206.51 1140.75 2216.6 1144.3 2224.35 1151.39 2232.01 1158.38 2235.84 1165.94 2235.84 1174.05 2235.84 1182.16 2234.62 1188.56 2232.2 1193.22 2229.68 1197.79 2226.45 1201.43 2222.53 1204.14 2218.52 1206.74 2212.77 1208.75 2205.3 1210.14L2205.3 1210.14C2193.91 1212.29 2176.86 1213.37 2154.18 1213.37L2154.18 1213.37C2155.57 1226.14 2159.45 1236.26 2165.8 1243.73 2172.06 1251.18 2181.39 1254.92 2193.82 1254.92 2206.23 1254.92 2215.01 1250.3 2220.15 1241.07L2220.15 1241.07C2227.25 1243.86 2230.8 1247.73 2230.8 1252.68 2230.8 1257.71 2226.78 1261.82 2218.75 1264.99 2210.62 1268.16 2201.61 1269.75 2191.72 1269.75L2191.72 1269.75C2175 1269.75 2161.36 1264.48 2150.81 1253.93 2140.16 1243.4 2134.84 1227.55 2134.84 1206.37 2134.84 1185.2 2140.73 1168.97 2152.48 1157.69 2164.25 1146.4 2178.12 1140.75 2194.1 1140.75ZM2193.11 1155.45 2193.11 1155.45C2182.47 1155.45 2173.37 1159.08 2165.8 1166.36 2158.24 1173.63 2154.27 1184.87 2153.89 1200.07L2153.89 1200.07C2179.29 1200.07 2196.15 1198.21 2204.46 1194.47L2204.46 1194.47C2208.01 1192.89 2211.09 1190.6 2213.71 1187.63 2216.23 1184.64 2217.49 1180.58 2217.49 1175.45 2217.49 1170.42 2215.15 1165.85 2210.49 1161.74 2205.81 1157.54 2200.02 1155.45 2193.11 1155.45Z" fill="#4551BF" fill-rule="evenodd"></path><path d="M2461.16 1088.46 2461.16 1088.46C2466.14 1087.32 2470.32 1086.75 2473.7 1086.75L2473.7 1086.75C2480.46 1086.75 2483.84 1091.14 2483.84 1099.92L2483.84 1099.92C2483.84 1119.66 2477.6 1146.1 2465.11 1179.24 2452.62 1212.28 2439.89 1237.17 2426.93 1253.88L2426.93 1253.88C2422.43 1259.83 2418.67 1263.8 2415.67 1265.78 2412.56 1267.76 2409.51 1268.75 2406.5 1268.75 2403.49 1268.75 2400.02 1268.57 2396.08 1268.19L2396.08 1268.19C2390.35 1239.3 2380.63 1206.2 2366.92 1168.9 2353.21 1131.6 2341.51 1108.19 2331.84 1098.65L2331.84 1098.65C2339.36 1092.04 2345.84 1088.74 2351.28 1088.74 2356.73 1088.74 2361.05 1092.56 2364.25 1100.21L2364.25 1100.21C2371.19 1116.16 2379.41 1138.88 2388.9 1168.33 2398.29 1197.79 2405.66 1223.34 2411.01 1244.96L2411.01 1244.96C2421.62 1233.16 2432.8 1211.53 2444.55 1180.09 2456.27 1148.55 2462.15 1122.49 2462.15 1101.91L2462.15 1101.91C2462.15 1095.39 2461.82 1090.91 2461.16 1088.46Z" fill="#4551BF" fill-rule="evenodd"></path><path d="M2519.62 1253.39 2519.62 1253.39 2520.18 1206.03C2520.18 1180.47 2519.53 1159.61 2518.21 1143.45L2518.21 1143.45C2521.12 1142.89 2524.17 1142.6 2527.36 1142.6L2527.36 1142.6C2535.71 1142.6 2539.88 1145.98 2539.88 1152.75L2539.88 1152.75C2539.88 1153.69 2539.69 1157.27 2539.32 1163.46L2539.32 1163.46C2538.29 1182.54 2537.78 1201.71 2537.78 1220.98 2537.78 1240.15 2539.46 1255.32 2542.84 1266.5L2542.84 1266.5C2539.65 1268 2535.85 1268.75 2531.44 1268.75 2527.13 1268.75 2524.08 1267.58 2522.3 1265.23 2520.51 1262.89 2519.62 1258.94 2519.62 1253.39ZM2542.28 1114C2542.28 1118.03 2540.87 1121.46 2538.06 1124.28 2535.24 1127.01 2532 1128.37 2528.35 1128.37 2524.69 1128.37 2521.49 1127.05 2518.78 1124.42 2516.15 1121.7 2514.84 1118.27 2514.84 1114.13 2514.84 1110.09 2516.24 1106.66 2519.06 1103.84 2521.87 1101.12 2525.11 1099.75 2528.77 1099.75 2532.42 1099.75 2535.62 1101.12 2538.34 1103.84 2540.96 1106.66 2542.28 1110.05 2542.28 1114Z" fill="#4551BF" fill-rule="evenodd"></path><path d="M2641.02 1254.92 2641.02 1254.92C2646.31 1254.92 2651.69 1253.75 2657.16 1251.42 2662.64 1249.09 2666.49 1245.64 2668.71 1241.07L2668.71 1241.07C2675.76 1243.86 2679.29 1247.4 2679.29 1251.7L2679.29 1251.7C2679.29 1257.49 2675.3 1261.96 2667.32 1265.13 2659.25 1268.21 2650.2 1269.75 2640.19 1269.75L2640.19 1269.75C2624.15 1269.75 2610.74 1264.48 2599.98 1253.93 2589.23 1243.4 2583.84 1227.68 2583.84 1206.79L2583.84 1206.79C2583.84 1195.59 2585.6 1185.61 2589.12 1176.86 2592.75 1168.09 2597.43 1161.14 2603.17 1156L2603.17 1156C2615.06 1145.84 2628.03 1140.75 2642.14 1140.75L2642.14 1140.75C2651.04 1140.75 2659.58 1142.81 2667.73 1146.92 2675.81 1151.01 2679.84 1156.79 2679.84 1164.26L2679.84 1164.26C2679.84 1170.6 2675.63 1174.38 2667.18 1175.59L2667.18 1175.59C2665.42 1169.25 2661.67 1164.35 2655.91 1160.9 2650.25 1157.45 2644.23 1155.72 2637.82 1155.72L2637.82 1155.72C2627.99 1155.72 2619.69 1160.11 2612.92 1168.88 2606.05 1177.65 2602.62 1190 2602.62 1205.95 2602.62 1221.9 2606.19 1234.02 2613.34 1242.32 2620.48 1250.72 2629.7 1254.92 2641.02 1254.92Z" fill="#4551BF" fill-rule="evenodd"></path><path d="M2730.44 1157 2730.44 1157C2729.97 1157 2721.72 1157.6 2705.68 1158.83L2705.68 1158.83C2705.12 1157.23 2704.84 1154.69 2704.84 1151.22 2704.84 1147.74 2706.2 1145.44 2708.92 1144.32 2711.55 1143.19 2716.05 1142.62 2722.42 1142.62L2722.42 1142.62 2730.01 1142.62C2729.64 1130.6 2729.08 1120.58 2728.33 1112.6L2728.33 1112.6C2731.04 1112.03 2734 1111.75 2737.18 1111.75L2737.18 1111.75C2745.71 1111.75 2749.99 1115.14 2749.99 1121.9L2749.99 1121.9C2749.99 1124.44 2749.61 1131.39 2748.86 1142.76L2748.86 1142.76C2771.54 1142.76 2786.54 1142.34 2793.86 1141.5L2793.86 1141.5C2794.52 1142.91 2794.84 1145.16 2794.84 1148.26 2794.84 1151.45 2793.9 1153.66 2792.02 1154.89 2790.16 1156.1 2786.68 1156.81 2781.62 1157 2776.56 1157.18 2765.5 1157.29 2748.44 1157.29L2748.44 1157.29C2748.06 1176.54 2747.88 1195.33 2747.88 1213.65 2747.88 1231.98 2749.61 1243.54 2753.07 1248.34 2756.55 1253.12 2762.16 1255.52 2769.95 1255.52 2777.64 1255.52 2784.15 1252.85 2789.5 1247.48L2789.5 1247.48C2792.78 1250.87 2794.42 1254.26 2794.42 1257.63 2794.42 1261.11 2792.08 1263.98 2787.39 1266.23 2782.8 1268.58 2777.17 1269.75 2770.52 1269.75L2770.52 1269.75C2755.8 1269.75 2745.34 1265.48 2739.15 1256.93 2733.06 1248.38 2730.01 1235.6 2730.01 1218.59L2730.01 1218.59C2730.3 1186.27 2730.44 1165.73 2730.44 1157Z" fill="#4551BF" fill-rule="evenodd"></path><path d="M2832.46 1253.39 2832.46 1253.39 2833 1206.03C2833 1180.47 2832.37 1159.61 2831.1 1143.45L2831.1 1143.45C2833.9 1142.89 2836.84 1142.6 2839.92 1142.6L2839.92 1142.6C2847.97 1142.6 2851.99 1145.98 2851.99 1152.75L2851.99 1152.75C2851.99 1153.69 2851.81 1157.27 2851.45 1163.46L2851.45 1163.46C2850.46 1182.54 2849.96 1201.71 2849.96 1220.98 2849.96 1240.15 2851.59 1255.32 2854.84 1266.5L2854.84 1266.5C2851.77 1268 2848.11 1268.75 2843.86 1268.75 2839.7 1268.75 2836.75 1267.58 2835.04 1265.23 2833.32 1262.89 2832.46 1258.94 2832.46 1253.39ZM2854.3 1114C2854.3 1118.03 2852.95 1121.46 2850.23 1124.28 2847.52 1127.01 2844.4 1128.37 2840.87 1128.37 2837.35 1128.37 2834.26 1127.05 2831.64 1124.42 2829.11 1121.7 2827.84 1118.27 2827.84 1114.13 2827.84 1110.09 2829.2 1106.66 2831.91 1103.84 2834.63 1101.12 2837.75 1099.75 2841.27 1099.75 2844.8 1099.75 2847.88 1101.12 2850.51 1103.84 2853.04 1106.66 2854.3 1110.05 2854.3 1114Z" fill="#4551BF" fill-rule="evenodd"></path><path d="M3051.28 1255.09 3051.28 1255.09 3052.84 1185.81C3052.84 1175.57 3050.72 1168.02 3046.49 1163.13 3042.35 1158.25 3036.85 1155.82 3030 1155.82L3030 1155.82C3019.64 1155.82 3008.6 1160.55 2996.85 1170.03L2996.85 1170.03C2997.22 1194.25 2997.42 1213.55 2997.42 1227.92 2997.42 1242.27 2997.93 1255.51 2998.96 1267.62L2998.96 1267.62C2996.14 1268.18 2993.09 1268.47 2989.8 1268.47L2989.8 1268.47C2981.81 1268.47 2977.81 1265.08 2977.81 1258.33L2977.81 1258.33C2977.81 1257.57 2977.91 1254 2978.1 1247.63L2978.1 1247.63C2978.76 1232.23 2979.09 1211.63 2979.09 1185.81L2979.09 1185.81C2979.09 1165.81 2971.24 1155.82 2955.53 1155.82L2955.53 1155.82C2945.38 1155.82 2934.43 1160.7 2922.68 1170.46L2922.68 1170.46C2922.96 1194.77 2923.1 1214.02 2923.1 1228.19 2923.1 1242.37 2923.67 1255.51 2924.79 1267.62L2924.79 1267.62C2921.88 1268.18 2918.83 1268.47 2915.63 1268.47L2915.63 1268.47C2907.63 1268.47 2903.64 1265.08 2903.64 1258.33L2903.64 1258.33C2903.64 1257.57 2903.83 1251 2904.2 1238.61 2904.68 1226.22 2904.91 1213.88 2904.91 1201.58L2904.91 1201.58C2904.91 1172.29 2903.22 1153.37 2899.84 1144.83L2899.84 1144.83C2903.41 1143.42 2906.6 1142.72 2909.43 1142.72L2909.43 1142.72C2917.7 1142.72 2921.84 1147.17 2921.84 1156.1L2921.84 1156.1C2927.38 1151.59 2933.96 1147.93 2941.58 1145.11 2949.28 1142.2 2956.71 1140.75 2963.86 1140.75L2963.86 1140.75C2978.52 1140.75 2988.44 1146.56 2993.61 1158.21L2993.61 1158.21C2998.41 1153.41 3005.12 1149.34 3013.77 1145.96 3022.52 1142.48 3031.21 1140.75 3039.86 1140.75 3048.51 1140.75 3055.85 1143.75 3061.86 1149.76 3067.97 1155.77 3071.03 1165.34 3071.03 1178.48L3071.03 1178.48 3070.18 1226.22C3070.18 1242.55 3071.74 1255.97 3074.84 1266.5L3074.84 1266.5C3071.26 1267.99 3067.45 1268.75 3063.42 1268.75 3059.37 1268.75 3056.31 1267.71 3054.25 1265.65 3052.27 1263.59 3051.28 1260.06 3051.28 1255.09Z" fill="#4551BF" fill-rule="evenodd"></path><path d="M3187.48 1172.93 3187.48 1172.93C3185.53 1167.8 3181.56 1163.65 3175.61 1160.48 3169.55 1157.32 3163.37 1155.72 3157.03 1155.72 3150.8 1155.72 3145.44 1157.36 3140.98 1160.62 3136.61 1163.89 3134.41 1168.36 3134.41 1174.05 3134.41 1179.74 3136.74 1184.07 3141.4 1187.06 3146.14 1190.05 3151.87 1192.33 3158.57 1193.92 3165.27 1195.59 3171.98 1197.42 3178.68 1199.37 3185.38 1201.43 3191.11 1205.11 3195.86 1210.43 3200.51 1215.74 3202.84 1222.65 3202.84 1231.13L3202.84 1231.13C3202.84 1243.73 3198.33 1253.33 3189.29 1259.95 3180.26 1266.48 3169.98 1269.75 3158.43 1269.75 3146.8 1269.75 3136.79 1267.69 3128.4 1263.58 3120.03 1259.58 3115.84 1254.54 3115.84 1248.48L3115.84 1248.48C3115.84 1243.35 3119.79 1239.62 3127.71 1237.29L3127.71 1237.29C3129.67 1242.98 3133.91 1247.31 3140.41 1250.3 3146.84 1253.38 3153.87 1254.92 3161.51 1254.92 3169.04 1254.92 3175.19 1253.19 3179.94 1249.73 3184.59 1246.39 3186.92 1241.62 3186.92 1235.47 3186.92 1229.22 3184.59 1224.7 3179.94 1221.9 3175.19 1219.11 3169.46 1216.91 3162.76 1215.33 3156.06 1213.83 3149.35 1212.06 3142.65 1210.01 3135.95 1208.05 3130.22 1204.23 3125.48 1198.54 3120.82 1192.84 3118.49 1185.1 3118.49 1175.32 3118.49 1165.43 3123.06 1157.21 3132.18 1150.69 3141.31 1144.07 3150.8 1140.75 3160.67 1140.75 3170.63 1140.75 3179.56 1142.62 3187.48 1146.35 3195.39 1150.09 3199.35 1154.98 3199.35 1161.04 3199.35 1167.01 3195.39 1170.97 3187.48 1172.93Z" fill="#4551BF" fill-rule="evenodd"></path></g></svg> 